<svg width="33" height="33" viewBox="0 0 33 33" fill="none" xmlns="http://www.w3.org/2000/svg">
<path fill-rule="evenodd" clip-rule="evenodd" d="M0.34375 3.39588C0.34375 2.70037 0.628168 2.03334 1.13443 1.54154C1.6407 1.04973 2.32734 0.773441 3.04331 0.773441H29.9537C30.3086 0.772878 30.66 0.840305 30.988 0.97186C31.3159 1.10342 31.6139 1.29652 31.865 1.54011C32.116 1.7837 32.3151 2.073 32.4509 2.39144C32.5867 2.70988 32.6564 3.05121 32.6562 3.39588V29.5376C32.6566 29.8823 32.587 30.2237 32.4515 30.5423C32.3159 30.8609 32.117 31.1504 31.8661 31.3943C31.6152 31.6381 31.3173 31.8315 30.9894 31.9634C30.6615 32.0953 30.3101 32.163 29.9552 32.1629H3.04331C2.68868 32.1629 2.33752 32.095 2.0099 31.9631C1.68227 31.8312 1.38461 31.6379 1.13391 31.3943C0.883218 31.1506 0.6844 30.8613 0.548821 30.543C0.413241 30.2247 0.343557 29.8835 0.34375 29.539V3.39588ZM13.1336 12.7414H17.509V14.8759C18.1406 13.6488 19.7562 12.5445 22.1841 12.5445C26.8385 12.5445 27.9416 14.9886 27.9416 19.473V27.7798H23.2313V20.4946C23.2313 17.9406 22.5997 16.4995 20.9958 16.4995C18.7707 16.4995 17.8454 18.0533 17.8454 20.4946V27.7798H13.1336V12.7414ZM5.0555 27.5843H9.76725V12.5445H5.0555V27.5829V27.5843ZM10.4414 7.63916C10.4503 8.03106 10.3785 8.42074 10.2303 8.78532C10.082 9.14991 9.8603 9.48206 9.57812 9.76227C9.29595 10.0425 8.95899 10.2651 8.58704 10.4171C8.21509 10.5691 7.81563 10.6474 7.41211 10.6474C7.00859 10.6474 6.60913 10.5691 6.23718 10.4171C5.86522 10.2651 5.52827 10.0425 5.2461 9.76227C4.96392 9.48206 4.74221 9.14991 4.59396 8.78532C4.44572 8.42074 4.37393 8.03106 4.38281 7.63916C4.40025 6.86991 4.72707 6.13788 5.29327 5.59983C5.85947 5.06178 6.62005 4.76049 7.41211 4.76049C8.20417 4.76049 8.96475 5.06178 9.53095 5.59983C10.0972 6.13788 10.424 6.86991 10.4414 7.63916V7.63916Z" fill="#242424"/>
</svg>
