<svg width="2128" height="228" viewBox="0 0 2128 228" fill="none" xmlns="http://www.w3.org/2000/svg">
<path d="M724.563 0.0148486C722.25 11.1067 720.073 21.3968 717.896 31.8205C704.291 95.0309 690.685 158.241 677.215 221.318C676.127 226.263 673.95 228 668.508 228C638.167 227.733 607.69 227.733 577.349 228C571.635 228 570.002 225.728 569.186 220.917C560.614 166.26 552.043 111.736 543.199 57.2116C542.927 55.6079 541.566 54.1379 540.614 52.5343C539.797 54.1379 538.437 55.6079 538.029 57.2116C530.409 95.6991 522.79 134.32 515.171 172.941C511.906 189.78 508.776 206.484 505.375 223.323C504.967 225.06 502.926 227.733 501.565 227.733C482.517 228 463.605 227.866 443.877 227.866C447.686 209.692 451.36 192.453 455.17 175.08C467.279 119.353 479.388 63.4925 491.361 7.76581C492.449 2.42032 494.218 -0.118789 500.477 0.0148486C530.137 0.41576 559.934 0.41576 589.594 0.0148486C595.309 0.0148486 597.486 1.75213 598.302 7.23126C605.785 53.737 613.404 100.109 621.024 146.615C622.656 156.37 624.153 166.26 625.65 176.015C626.33 176.149 627.146 176.416 627.826 176.55C628.643 174.812 629.867 173.075 630.276 171.204C637.487 134.588 644.698 97.971 651.909 61.3543C655.582 42.6451 659.12 23.8023 663.065 5.2267C663.474 3.35578 666.195 0.41576 667.827 0.41576C686.467 -0.118789 705.107 0.0148486 724.563 0.0148486Z" fill="#1373AF"/>
<path d="M1613.44 225.938C1613.44 190.977 1613.44 156.996 1613.44 123.016C1612.99 122.798 1612.55 122.689 1612 122.471C1611.12 123.996 1609.9 125.412 1609.24 127.046C1595.54 157.105 1581.95 187.274 1568.36 217.443C1564.5 225.938 1564.61 226.047 1554.89 226.047C1537.21 226.047 1519.54 226.047 1501.42 226.047C1501.42 171.482 1501.42 117.134 1501.42 62.1338C1508.38 62.1338 1515.34 62.1338 1522.3 62.1338C1527.82 62.1338 1533.35 62.3516 1538.87 62.0249C1543.51 61.6982 1544.95 63.2229 1544.72 67.7972C1544.06 86.8569 1543.73 105.917 1543.29 124.867C1542.85 144.689 1542.52 164.402 1542.18 184.224C1542.18 185.858 1542.29 187.492 1543.73 189.452C1544.5 188.363 1545.39 187.274 1545.94 186.076C1564.39 146.214 1582.95 106.352 1601.17 66.3814C1602.72 63.0051 1604.6 61.916 1608.24 61.916C1619.84 62.1338 1631.44 62.2427 1643.04 61.916C1648.01 61.8071 1649.34 63.5497 1649.34 68.2329C1649.67 100.035 1650.11 131.729 1650.55 163.422C1650.66 171.917 1650.55 180.304 1650.55 188.799C1651.33 188.908 1652.21 189.125 1652.98 189.234C1653.87 187.71 1654.97 186.294 1655.63 184.66C1671.76 145.778 1688 106.897 1704.02 67.9062C1705.9 63.3318 1708.11 61.5892 1713.19 61.8071C1725.12 62.2427 1737.05 61.916 1749.86 61.916C1748.65 65.0744 1747.65 67.9062 1746.44 70.629C1724.34 120.838 1702.25 171.046 1680.27 221.255C1678.72 224.849 1676.73 225.938 1672.87 225.938C1655.19 225.72 1637.52 225.829 1619.84 225.829C1618.07 225.938 1616.31 225.938 1613.44 225.938Z" fill="#1373AF"/>
<path d="M1197.43 122.363C1196.65 124.105 1195.88 125.848 1195 127.59C1180.97 158.521 1166.94 189.453 1153.13 220.493C1151.36 224.522 1149.15 226.047 1144.51 226.047C1126.84 225.72 1109.16 225.829 1091.49 226.047C1087.95 226.047 1086.63 225.067 1086.63 221.473C1086.74 169.413 1086.74 117.244 1086.74 65.1837C1086.74 64.4213 1086.85 63.7678 1087.07 62.5698C1101.65 62.5698 1116.23 62.5698 1131.04 62.5698C1129.93 104.828 1128.94 146.868 1127.83 188.908C1128.49 189.017 1129.16 189.235 1129.93 189.344C1131.37 186.73 1132.91 184.225 1134.13 181.611C1151.91 143.165 1169.59 104.719 1187.48 66.3817C1188.26 64.6391 1190.58 62.352 1192.23 62.2431C1206.15 61.9163 1220.18 62.0252 1234.76 62.0252C1235.65 104.61 1236.53 146.759 1237.53 189.017C1238.19 189.126 1238.85 189.235 1239.51 189.344C1240.4 187.71 1241.39 186.076 1242.05 184.443C1258.29 145.234 1274.64 106.026 1290.77 66.7085C1292.21 63.2233 1293.97 61.9163 1297.62 62.0252C1310.1 62.2431 1322.59 62.1342 1335.73 62.1342C1335.29 63.8767 1335.18 65.0748 1334.74 66.1639C1311.98 117.897 1289.22 169.522 1266.58 221.255C1264.92 225.067 1262.93 226.265 1258.85 226.156C1239.73 225.938 1220.62 226.047 1200.52 226.047C1200.3 191.413 1200.63 156.997 1200.19 122.689C1199.19 122.472 1198.31 122.363 1197.43 122.363Z" fill="#1373AF"/>
<path d="M856.524 188.797C857.739 183.678 858.954 178.45 859.949 173.331C866.687 138.37 873.426 103.301 880.054 68.3398C880.937 63.7655 882.484 61.6961 887.786 61.914C899.938 62.4585 911.979 62.0229 924.793 62.0229C922.031 74.8745 919.49 87.0727 916.839 99.162C908.112 139.895 899.164 180.519 890.548 221.253C889.775 224.847 888.449 226.045 884.804 226.045C862.71 225.936 840.617 225.936 818.523 226.045C815.099 226.045 813.994 225.065 813.442 221.579C807.698 184.222 801.733 146.866 795.878 109.509C795.325 106.023 794.442 102.647 793.668 99.162C793.006 99.162 792.232 99.2709 791.57 99.2709C790.244 105.37 788.918 111.36 787.703 117.459C780.965 152.093 774.337 186.727 767.488 221.361C767.156 223.104 764.726 225.609 763.29 225.718C750.255 226.045 737.22 225.936 723.301 225.936C725.289 216.46 727.167 207.53 729.045 198.599C738.435 154.707 747.935 110.816 757.325 66.9239C758.098 63.3298 759.424 61.8051 763.401 61.914C784.721 62.1318 806.151 62.1318 827.471 61.914C832.221 61.914 833.547 63.4387 834.21 68.0131C839.733 103.083 845.588 138.044 851.332 173.004C852.216 178.232 853.1 183.46 853.983 188.688C854.978 188.688 855.751 188.688 856.524 188.797Z" fill="#1373AF"/>
<path d="M0 226.229C6.77124 207.791 13.2661 189.892 19.8992 171.993C32.3361 138.348 44.2204 104.434 57.3483 71.0582C62.5994 57.7348 69.3707 44.8151 77.3856 32.9721C91.2045 12.2468 112.624 2.6916 137.083 1.61496C173.15 3.20864e-07 209.356 0.40374 245.423 0C246.114 0 246.667 0.40374 248.049 0.80748C245.285 15.073 242.521 29.2039 239.757 43.4693C230.222 91.2452 220.687 139.021 211.29 186.932C208.941 199.044 206.73 211.021 204.105 223.134C203.69 225.018 201.203 227.709 199.544 227.709C183.1 228.113 166.517 227.978 148.967 227.978C152.284 210.214 155.462 193.257 158.779 175.627C156.291 175.223 154.633 174.819 152.837 174.819C129.759 174.819 106.82 174.954 83.7423 174.685C78.4911 174.685 76.0037 176.3 74.3455 181.279C69.5089 195.276 64.2577 209.137 58.8683 222.864C58.0392 224.883 55.5518 227.709 53.7554 227.844C37.0345 228.113 20.1755 227.844 3.31653 227.709C2.48739 227.44 1.65826 226.902 0 226.229ZM91.7572 134.715C116.631 134.715 139.985 134.849 163.477 134.445C164.859 134.445 167.07 131.619 167.485 129.735C170.525 115.066 173.289 100.397 176.052 85.7274C178.263 74.4227 180.336 62.9834 182.547 50.8712C169.005 50.8712 156.153 50.7367 143.44 50.8712C126.304 51.275 117.46 60.9647 112.762 76.0377C108.202 90.3032 102.812 104.299 97.8375 118.565C95.9029 123.41 93.9683 128.389 91.7572 134.715Z" fill="#1373AF"/>
<path d="M1849.17 61.9159C1862.21 61.9159 1874.47 61.9159 1886.84 61.9159C1904.85 61.9159 1922.96 61.807 1940.97 62.1337C1947.49 62.2426 1954.22 63.005 1960.63 64.4208C1977.09 67.906 1985.16 77.926 1983.61 94.3717C1982.61 104.718 1980.29 115.065 1977.64 125.194C1974.11 139.244 1964.39 147.739 1950.36 151.66C1947.15 152.531 1944.06 153.62 1940.97 154.6C1941.08 155.145 1941.19 155.58 1941.3 156.125C1943.84 156.67 1946.49 157.105 1949.03 157.65C1959.53 159.828 1965.16 165.818 1964.28 176.274C1963.28 187.927 1960.63 199.472 1958.42 211.017C1957.43 215.918 1957.21 222.344 1954 224.957C1951.02 227.354 1944.5 225.72 1939.53 225.72C1930.58 225.72 1921.64 225.72 1911.69 225.72C1913.68 216.571 1915.56 208.185 1917.44 199.799C1917.66 198.601 1918.1 197.294 1918.21 196.096C1919.65 182.591 1920.42 173.006 1899.21 173.442C1890.93 173.66 1882.64 173.878 1874.36 173.551C1869.72 173.442 1867.95 175.185 1867.07 179.541C1864.3 193.591 1861.32 207.532 1858.12 221.472C1857.79 223.106 1855.69 225.502 1854.47 225.502C1841.33 225.829 1828.07 225.72 1813.93 225.72C1825.64 170.937 1837.35 116.699 1849.17 61.9159ZM1877.01 136.956C1892.36 136.956 1907.06 137.392 1921.64 136.63C1925.28 136.412 1930.25 132.818 1931.69 129.55C1934.34 123.56 1935.33 116.699 1936 110.055C1936.66 103.52 1933.02 99.7084 1926.28 99.4906C1913.79 99.0549 1901.31 98.8371 1888.83 98.946C1887.17 98.946 1884.41 101.124 1884.08 102.649C1881.43 113.758 1879.33 124.976 1877.01 136.956Z" fill="#1373AF"/>
<path d="M443.876 0.034879C440.475 14.2158 437.754 27.0589 434.489 39.6345C431.088 52.7451 433.945 50.2033 420.612 50.4708C399.525 50.8722 378.437 50.8722 357.486 51.8086C344.698 52.3438 333.814 58.364 330.685 70.8057C323.746 98.3649 317.488 126.058 312.863 154.152C310.55 168.066 317.896 175.156 332.317 175.557C364.016 176.494 395.715 176.494 427.414 176.761C429.591 176.761 431.904 176.761 434.897 176.761C431.224 193.35 427.823 209.137 424.149 224.923C423.877 226.261 421.156 228 419.524 228C380.75 227.732 341.977 227.599 303.339 226.528C294.768 226.261 285.789 223.987 277.626 221.177C258.58 214.622 248.784 199.906 248.104 179.972C247.56 162.58 251.097 145.991 254.906 129.269C259.94 107.863 263.885 86.1907 270.144 65.0531C280.211 30.4035 304.019 9.39964 340.344 3.37944C374.084 -2.3732 408.368 1.23892 443.876 0.034879Z" fill="#1373AF"/>
<path d="M1470.17 63.0047C1467.96 74.1138 1465.97 84.5694 1463.43 94.916C1463.21 96.1141 1460 97.3121 1458.24 97.2032C1442.22 96.9853 1426.2 96.3319 1410.18 96.114C1405.43 96.0051 1400.57 96.4408 1395.93 97.3121C1386.21 99.0547 1381.02 107.005 1383.23 116.698C1384.45 122.035 1388.31 124.649 1393.5 125.085C1403.22 126.065 1412.95 126.174 1422.67 127.481C1431.17 128.679 1439.79 129.986 1447.74 132.926C1464.98 139.243 1472.16 152.748 1468.95 170.61C1468.07 175.729 1466.85 180.848 1465.53 185.967C1459.67 209.492 1445.86 220.056 1418.69 224.63C1393.5 228.878 1368.1 226.809 1342.69 226.373C1334.96 226.264 1327.33 226.373 1318.83 226.373C1321.26 214.719 1323.25 204.264 1325.68 193.917C1325.9 192.828 1328.33 191.521 1329.76 191.521C1346.33 191.63 1362.9 192.066 1379.47 192.066C1389.2 192.066 1399.03 192.175 1408.64 191.412C1417.47 190.759 1426.2 180.63 1425.21 171.917C1424.88 168.976 1421.89 164.947 1419.24 163.857C1413.72 161.788 1407.53 161.352 1401.57 160.372C1388.2 158.303 1374.5 157.432 1361.47 153.946C1344.57 149.481 1337.05 137.61 1338.6 120.184C1339.82 106.025 1343.35 92.3021 1352.3 80.5396C1359.92 70.5197 1370.64 65.2919 1382.68 63.3315C1411.62 58.6482 1440.56 62.2423 1470.17 63.0047Z" fill="#1373AF"/>
<path d="M2116.84 128.265C2114.85 137.087 2112.98 144.602 2111.65 152.226C2110.99 156.256 2109.33 157.562 2105.13 157.454C2086.69 157.236 2068.35 157.562 2049.9 157.345C2044.93 157.236 2042.61 158.543 2041.84 163.662C2040.4 172.375 2038.3 180.979 2036.31 190.672C2066.8 190.672 2096.96 190.672 2128 190.672C2127.45 193.939 2127.23 196.117 2126.67 198.405C2125.02 206.355 2123.36 214.415 2121.37 222.256C2120.93 223.781 2118.83 225.85 2117.4 225.85C2073.98 226.068 2030.57 225.959 1987.15 225.959C1986.82 225.959 1986.49 225.742 1985.5 225.306C1986.71 218.88 1987.93 212.454 1989.36 205.919C1999.31 159.523 2009.25 113.235 2019.3 66.9475C2019.85 64.4425 2020.07 61.9375 2024.27 61.9375C2055.53 62.1553 2086.8 62.0464 2118.17 62.0464C2118.83 62.0464 2119.6 62.2642 2120.93 62.4821C2118.72 73.0465 2116.62 83.5021 2114.08 93.7399C2113.75 95.1557 2110.55 96.5716 2108.67 96.6805C2093.2 96.8983 2077.74 97.0072 2062.27 96.6805C2057.96 96.5716 2055.98 97.8785 2055.31 102.126C2053.88 110.621 2051.89 119.008 2049.9 128.374C2072.55 128.265 2094.31 128.265 2116.84 128.265Z" fill="#1373AF"/>
<path d="M1054.04 190.672C1051.61 202.108 1049.4 212.127 1047.41 222.256C1046.63 226.068 1044.2 225.959 1041.33 225.959C1014.49 225.959 987.535 225.959 960.692 225.959C950.197 225.959 939.703 225.959 929.208 225.959C927.441 225.959 925.674 225.959 923.133 225.959C925.232 216.048 926.999 206.9 928.988 197.751C938.488 154.077 947.988 110.403 957.378 66.6207C958.04 63.789 958.482 61.9375 962.017 61.9375C993.5 62.0464 1024.98 61.9375 1056.47 62.0464C1057.02 62.0464 1057.46 62.2642 1058.68 62.591C1056.36 73.1555 1054.26 83.8289 1051.61 94.2844C1051.27 95.3736 1048.18 96.4627 1046.3 96.5716C1031.17 96.7894 1016.15 96.8983 1001.01 96.5716C995.82 96.4627 993.5 97.8785 992.838 103.324C991.733 111.384 989.523 119.225 987.535 128.047C1009.85 128.047 1031.61 128.047 1054.59 128.047C1053.04 135.671 1051.72 142.206 1050.28 148.849C1048.4 157.562 1048.29 157.562 1039.01 157.562C1021.56 157.562 1003.99 157.78 986.541 157.562C982.343 157.562 980.686 159.087 979.913 162.899C978.145 171.939 976.157 180.87 973.948 190.89C1000.79 190.672 1026.97 190.672 1054.04 190.672Z" fill="#1373AF"/>
<path d="M1816.59 61.8981C1814.71 71.0468 1813.05 79.3241 1811.39 87.6014C1802.34 130.949 1793.39 174.296 1784.11 217.643C1782.12 226.9 1784.44 225.702 1774.28 225.811C1762.9 225.92 1751.52 225.811 1739.59 225.811C1742.02 214.157 1744.23 203.266 1746.55 192.375C1755.28 150.553 1764 108.839 1772.73 67.017C1773.5 63.4229 1774.83 61.5714 1779.14 61.6803C1791.18 62.116 1803.22 61.8981 1816.59 61.8981Z" fill="#1373AF"/>
</svg>
