<svg width="33" height="27" viewBox="0 0 33 27" fill="none" xmlns="http://www.w3.org/2000/svg">
<path d="M10.5075 26.1706C12.9884 26.1857 15.4478 25.7222 17.7429 24.8069C20.0379 23.8916 22.1231 22.5428 23.8774 20.8386C25.6317 19.1344 27.0203 17.1088 27.9625 14.8792C28.9047 12.6497 29.3819 10.2606 29.3663 7.85058V7.00877C30.6523 6.09347 31.7654 4.9687 32.6562 3.68434C31.4453 4.19884 30.1639 4.54006 28.8522 4.69737C30.243 3.89234 31.2865 2.62519 31.7897 1.13039C30.4935 1.88579 29.0722 2.41683 27.5891 2.69986C26.5902 1.66596 25.2684 0.980652 23.8283 0.749983C22.3881 0.519314 20.9098 0.756138 19.6222 1.42381C18.3345 2.09149 17.3093 3.15279 16.705 4.44351C16.1008 5.73422 15.9513 7.18241 16.2797 8.56397C13.6448 8.43834 11.0667 7.77499 8.71321 6.61712C6.35975 5.45926 4.28373 3.83284 2.62031 1.84378C1.78154 3.25798 1.52731 4.92897 1.90908 6.51841C2.29086 8.10786 3.28012 9.49698 4.67656 10.4045C3.6464 10.3659 2.64007 10.0922 1.73906 9.60553V9.67687C1.72991 11.1548 2.24243 12.5911 3.19122 13.7465C4.14001 14.9018 5.46774 15.7064 6.95312 16.0261C5.99497 16.2764 4.9913 16.3154 4.01562 16.1402C4.44565 17.4006 5.26653 18.501 6.36569 19.2903C7.46485 20.0796 8.78846 20.5193 10.155 20.549C7.81853 22.3761 4.91463 23.3817 1.91531 23.4026C1.38943 23.3878 0.864785 23.345 0.34375 23.2742C3.37959 25.1531 6.90789 26.1437 10.5075 26.1278" fill="#242424"/>
</svg>
